Coordinates
version=1
nRows=16
nColumns=36
inDegrees=yes

Units are S.I. units (second, meters, Newtons, ...)
If the header above contains a line with 'inDegrees', this indicates whether rotational values are in degrees (yes) or radians (no).

endheader
time	pelvis_tilt	pelvis_list	pelvis_rotation	pelvis_tx	pelvis_ty	pelvis_tz	hip_flexion_r	hip_adduction_r	hip_rotation_r	knee_angle_r	knee_angle_r_beta	ankle_angle_r	subtalar_angle_r	mtp_angle_r	hip_flexion_l	hip_adduction_l	hip_rotation_l	knee_angle_l	knee_angle_l_beta	ankle_angle_l	subtalar_angle_l	mtp_angle_l	lumbar_extension	lumbar_bending	lumbar_rotation	arm_flex_r	arm_add_r	arm_rot_r	elbow_flex_r	pro_sup_r	arm_flex_l	arm_add_l	arm_rot_l	elbow_flex_l	pro_sup_l
      5.91250000	     -2.57624478	      1.38091341	    -31.24872543	      0.39126335	      0.92686979	     -0.01850068	     14.66568149	     -0.85174874	    -30.14513295	     12.92571172	      0.22559623	     -3.38726193	    -32.09540876	     -7.49999987	      1.18157910	     -6.07790348	    -22.15296229	     13.61533256	      0.23763238	     -0.54432196	    -23.86291153	     -7.49999987	    -10.17729315	      0.01840887	     -7.21777037	     11.17042222	     -4.98883528	      5.00280397	     22.39209136	     69.28898953	     12.67975877	    -17.85314576	     25.51375480	     24.62250148	     67.07239533
      5.91666670	     -2.56524471	      1.35447653	    -31.80809854	      0.39079516	      0.92724908	     -0.01544247	     14.87360737	     -0.72243561	    -29.71348209	     13.25970391	      0.23142549	     -3.41706836	    -32.16699341	     -7.49999987	      1.28346228	     -6.19000300	    -22.22147925	     14.02348303	      0.24475595	     -0.67984999	    -24.57471061	     -7.49999987	    -10.08401048	      0.09624940	     -7.17591022	     11.87074167	     -5.27542119	      7.45718963	     22.31979753	     69.98826290	     12.96373684	    -17.97417851	     27.10103353	     24.32194137	     66.02865233
      5.92083330	     -2.49515731	      1.37796862	    -32.44973074	      0.39004425	      0.92846330	     -0.01408661	     15.06895054	     -0.58562230	    -29.13393536	     13.50361698	      0.23568258	     -3.48968210	    -32.30237100	     -7.49999987	      1.34408894	     -6.24971144	    -22.45085060	     14.49763297	      0.25303143	     -1.07431339	    -25.41860488	     -7.49999987	    -10.04006095	      0.07876618	     -7.19504663	     12.19546036	     -5.15228646	      7.33249776	     22.82641978	     69.28205715	     12.89284927	    -18.00454558	     26.95150437	     24.45482228	     65.01840166
      5.92500000	     -2.36950005	      1.30871353	    -33.03034740	      0.39033697	      0.92872404	     -0.01105948	     14.98592011	     -0.38428751	    -28.71543816	     13.55771120	      0.23662670	     -3.63968618	    -32.30364083	     -7.49999987	      1.28607461	     -6.39216064	    -22.71335976	     14.97167222	      0.26130497	     -1.42910569	    -26.08631337	     -7.49999987	    -10.16680479	      0.12721584	     -7.14312712	     12.64612196	     -5.13633383	      7.53789764	     23.23218956	     69.55477860	     13.01032614	    -18.01454035	     26.95996591	     24.54157887	     64.74201853
      5.92916670	     -2.28237969	      1.27457828	    -33.54045753	      0.38994931	      0.92878133	     -0.00707923	     14.96450232	     -0.16261125	    -28.31916027	     13.70559441	      0.23920775	     -3.59617651	    -32.26348866	     -7.49999987	      1.29541992	     -6.57082576	    -22.82034451	     15.49482728	      0.27043575	     -2.06633829	    -27.18044922	     -7.49999987	    -10.13614062	      0.13631407	     -7.19030770	     13.12379466	     -5.10841224	      8.54024741	     23.32795163	     68.92942096	     13.19919572	    -18.01866596	     27.35077725	     24.18254736	     63.52648809
      5.93333330	     -2.15557039	      1.19334732	    -34.11922873	      0.39118357	      0.92859089	     -0.00789371	     14.87751331	      0.01139342	    -27.79800421	     13.81128856	      0.24105246	     -3.68949783	    -32.30984812	     -7.49999987	      1.24635727	     -6.68946241	    -22.95173411	     16.13377134	      0.28158743	     -2.30999142	    -27.90302646	     -7.49999987	    -10.17417769	      0.22839887	     -7.29713644	     13.47853113	     -5.15884432	      9.30109990	     23.86861538	     69.03812375	     13.23515966	    -18.01555351	     27.79953365	     24.12746194	     62.82359311
      5.93750000	     -1.94264034	      1.08260734	    -34.59710069	      0.39108113	      0.92924562	     -0.00345492	     14.55473243	      0.24050264	    -27.22432078	     13.71605209	      0.23939027	     -3.97494099	    -32.52884706	     -7.49999987	      1.01584763	     -6.86836159	    -23.34542723	     16.64783464	      0.29055953	     -2.40330607	    -28.15761832	     -7.49999987	    -10.40640283	      0.27636644	     -7.41573553	     13.63233386	     -5.11792348	      9.08155234	     25.05978206	     68.60924859	     13.05636555	    -18.14147096	     27.59091313	     24.83714205	     62.47784220
      5.94166670	     -1.90214106	      1.10675067	    -35.02505112	      0.39038953	      0.92838705	     -0.00278011	     14.61669356	      0.32194110	    -26.77990780	     13.89532913	      0.24251924	     -3.71512377	    -32.38657533	     -7.49999987	      1.20805346	     -6.98603464	    -23.19670448	     17.39145901	      0.30353822	     -3.08045474	    -29.45295581	     -7.49999987	    -10.39471964	      0.31823343	     -7.23799832	     14.15042389	     -5.09283441	      9.10494098	     25.13456057	     68.33794563	     13.42290712	    -17.85501515	     27.22845618	     24.44667867	     61.91599805
      5.94583330	     -1.74611718	      1.04522757	    -35.38481166	      0.38824588	      0.92743912	     -0.00354393	     14.60991717	      0.41689881	    -26.20017464	     14.07325731	      0.24562468	     -3.61973372	    -32.45516750	     -7.49999987	      1.41507998	     -7.14239706	    -23.01414831	     18.36125786	      0.32046440	     -3.24178445	    -30.25696550	     -7.49999987	    -10.72510058	      0.41461160	     -7.31451184	     14.57716084	     -5.05425937	      8.96519808	     25.99535789	     68.71906528	     13.61004580	    -17.84767939	     26.95803197	     24.85069999	     61.77529113
      5.95000000	     -1.81670630	      1.17242434	    -35.88826322	      0.38511404	      0.92680766	     -0.00115244	     15.04592337	      0.55135211	    -25.46980793	     14.39276096	      0.25120107	     -3.45699278	    -32.55667362	     -7.49999987	      1.91763302	     -7.31750531	    -23.01181716	     19.29060779	      0.33668462	     -3.57882263	    -31.13858080	     -7.49999987	    -10.61399786	      0.38489162	     -7.09830683	     15.05468511	     -5.05754395	      9.09166844	     26.30435286	     68.60195728	     14.01412639	    -17.63886254	     26.74167876	     24.59104881	     61.37964679
      5.95416670	     -1.71044880	      1.19085906	    -36.50804497	      0.38390299	      0.92910110	      0.00087248	     15.21449314	      0.68367569	    -24.71660185	     14.62749733	      0.25529799	     -3.34599081	    -32.55736123	     -7.49999987	      2.11530286	     -7.44987657	    -23.16756119	     20.08960236	      0.35062971	     -3.62084663	    -31.66111354	     -7.49999987	    -10.79824916	      0.31564932	     -6.84439728	     15.51871260	     -5.08500476	      9.70695470	     26.65628666	     69.09343006	     14.44570828	    -17.49760402	     26.93160315	     24.33039470	     60.98787908
      5.95833330	     -1.62891534	      1.21518040	    -37.20994636	      0.38176018	      0.92789586	      0.00245624	     15.37376779	      0.92299405	    -23.82925804	     14.72819610	      0.25705551	     -3.40908971	    -32.66915622	     -7.49999987	      2.36954895	     -7.61123609	    -23.25969809	     20.96822171	      0.36596451	     -3.81827760	    -32.23881921	     -7.49999987	    -11.19271708	      0.34659595	     -6.62696031	     16.06778098	     -4.99951447	      9.53851645	     27.61293345	     68.69253334	     14.56710581	    -17.69802855	     26.71430080	     25.19375525	     60.81418180
      5.96250000	     -1.51981922	      1.25411351	    -38.05902466	      0.38140932	      0.92770308	      0.00336989	     15.49609525	      1.09423127	    -23.00332362	     14.87298318	      0.25958253	     -3.26928730	    -32.58422718	     -7.49999987	      2.55823859	     -7.75262119	    -23.61887170	     21.90695871	      0.38234856	     -4.17606695	    -32.76176735	     -7.49999987	    -11.29518789	      0.26122067	     -6.01326467	     16.58344711	     -4.92788320	      8.76896665	     27.46506287	     74.29466378	     15.42070551	    -17.43943443	     28.56784086	     24.26212713	     58.44201203
      5.96666670	     -1.42433096	      1.35627051	    -38.77120507	      0.38248562	      0.92824944	      0.00827701	     15.42060385	      1.21660104	    -22.45373448	     14.70242610	      0.25660574	     -3.30497994	    -32.36974050	     -7.49999987	      2.60953433	     -7.81001467	    -23.98981921	     22.56035807	      0.39375253	     -4.36535222	    -32.98458789	     -7.49999987	    -11.42598232	      0.13642069	     -5.80137746	     17.20655521	     -4.70130564	      8.80740526	     27.71643686	     74.30748214	     15.60973904	    -17.36321907	     28.55251746	     24.29186582	     58.43009113
      5.97083330	     -1.29762135	      1.36288927	    -39.80559111	      0.38146608	      0.92366492	      0.00791507	     15.45888208	      1.42464029	    -21.43393625	     14.88141759	      0.25972973	     -2.94225513	    -32.29111260	     -7.49999987	      2.54187933	     -7.90766313	    -24.60280081	     23.26360153	      0.40602644	     -4.51106454	    -33.40388869	     -7.49999987	    -11.59220186	      0.12343310	     -5.16342803	     17.93162438	     -4.70355143	      8.99427517	     27.77479349	     73.54130110	     15.88051273	    -17.08074666	     27.64841080	     24.29688067	     58.27955254
      5.97500000	     -1.18436337	      1.38880487	    -40.78435789	      0.38085015	      0.91793803	      0.00910008	     15.56392393	      1.60450579	    -20.41511791	     15.10888121	      0.26369972	     -2.81651901	    -32.62059177	     -7.49999987	      2.69906385	     -8.08367269	    -25.20922240	     24.43979553	      0.42655490	     -4.43468130	    -33.64182960	     -7.49999987	    -11.92919072	      0.12369622	     -4.39246729	     18.46781775	     -5.05126223	      9.97583212	     28.50796826	     73.55754367	     16.13609304	    -17.02417907	     27.74766775	     24.92989571	     58.10392178
